<?xml version="1.0" encoding="UTF-8"?>
<svg id="Camada_2" data-name="Camada 2" xmlns="http://www.w3.org/2000/svg" viewBox="0 0 244.59 244.92">
  <g id="Camada_1" data-name="Camada 1">
    <path d="M161.88,6.35c37.68,12.89,57.18,40.54,62.38,48.47,10.74,16.36,15.29,31.99,17.39,41.92,0,.03.01.06.02.09l2.91,19.32c.01.07.02.14.02.22v12.52s0,.07,0,.1c-4.03,70.93-70.05,125-138.83,114.67-15.36-2.31-29.9-7.52-43.49-14.84-2.86-1.54-9.65-6.98-11.91-7.57-3.59-.93-19.16,1.15-25.13.65-35.21-2.95-15.83-29.68-.88-43.96,21.93-20.96,49.54-35.77,75.76-50.72,1.1-.63,2.42.36,2.13,1.59l-14.76,62.92c-.16.66.09,1.35.62,1.76.52.4,1.23.47,1.82.17,5.27-2.09,11.55-6.1,19.23-10.32,6.65-3.65,12.72-7.89,15.8-13.85,10.2-19.75,16.88-45.2,26.24-65.9,3.4-7.52,4.89-10.39,11.99-15.06,8.96-5.89,44.68-22.3,47.8-29.97,3.08-7.54-3-11.84-9.5-13.73-9.99-2.91-20.75-1.14-30.31,2.51-.07.03-.14.06-.2.1L3.64,140.92c-.82.46-1.84.04-2.11-.86-.71-2.4-1.16-6.85-1.26-8.18C-4.15,67.58,44.99,5.89,110.17.45c24.57-2.05,44.33,3.37,51.71,5.9ZM112.28,61.92c.41-.42.57-1.02.41-1.57-.23-.78-.97-1.04-1.04-1.07-30.98-4.71-53.42-8.12-55.09-8.4-1.83-.3-2.35-.46-3.48-.4-1.29.07-2.75.51-2.75.51h0s0,0,0,0,0,0,0,0c0,0-10.73,5.54-30.53,15.77-.22.17-.86.71-1.02,1.6-.21,1.1.38,2.29,1.49,2.96,24.08,7.71,41.76,12.93,44.34,13.23,1.69.19,3.32.07,3.32.07s1.78-.14,3.58-.67c2.5-.74,18.78-9.44,40.76-22.02Z"/>
  </g>
</svg>